<mxfile host="app.diagrams.net" modified="2024-05-02T12:05:37.109Z" agent="Mozilla/5.0 (Windows NT 10.0; Win64; x64) AppleWebKit/537.36 (KHTML, like Gecko) Chrome/124.0.0.0 Safari/537.36" etag="i5oQPIBC_Gr56tGfbhCT" version="24.3.1" type="github">
  <diagram id="C5RBs43oDa-KdzZeNtuy" name="Page-1">
    <mxGraphModel dx="880" dy="500" grid="1" gridSize="10" guides="1" tooltips="1" connect="1" arrows="1" fold="1" page="1" pageScale="1" pageWidth="1169" pageHeight="827" math="0" shadow="0">
      <root>
        <mxCell id="WIyWlLk6GJQsqaUBKTNV-0" />
        <mxCell id="WIyWlLk6GJQsqaUBKTNV-1" parent="WIyWlLk6GJQsqaUBKTNV-0" />
        <mxCell id="G9yZXuzABoH1UZLvW5Pr-1" value="" style="rounded=1;whiteSpace=wrap;html=1;" vertex="1" parent="WIyWlLk6GJQsqaUBKTNV-1">
          <mxGeometry x="90" y="20" width="180" height="100" as="geometry" />
        </mxCell>
        <mxCell id="G9yZXuzABoH1UZLvW5Pr-2" value="Battery(&lt;span style=&quot;background-color: initial;&quot;&gt;12v, 1Ah) with charging port&lt;/span&gt;" style="text;html=1;align=center;verticalAlign=middle;whiteSpace=wrap;rounded=0;" vertex="1" parent="WIyWlLk6GJQsqaUBKTNV-1">
          <mxGeometry x="120" y="40" width="130" height="60" as="geometry" />
        </mxCell>
        <mxCell id="G9yZXuzABoH1UZLvW5Pr-3" value="" style="rounded=1;whiteSpace=wrap;html=1;" vertex="1" parent="WIyWlLk6GJQsqaUBKTNV-1">
          <mxGeometry x="95" y="160" width="180" height="100" as="geometry" />
        </mxCell>
        <mxCell id="G9yZXuzABoH1UZLvW5Pr-4" value="Potentiometer Joystick&lt;div&gt;forward, reverse, left and right motion&lt;/div&gt;" style="text;html=1;align=center;verticalAlign=middle;whiteSpace=wrap;rounded=0;" vertex="1" parent="WIyWlLk6GJQsqaUBKTNV-1">
          <mxGeometry x="125" y="180" width="130" height="60" as="geometry" />
        </mxCell>
        <mxCell id="G9yZXuzABoH1UZLvW5Pr-5" value="" style="rounded=1;whiteSpace=wrap;html=1;" vertex="1" parent="WIyWlLk6GJQsqaUBKTNV-1">
          <mxGeometry x="320" y="20" width="180" height="100" as="geometry" />
        </mxCell>
        <mxCell id="G9yZXuzABoH1UZLvW5Pr-6" value="Transmitter and Receiver(RAK) with MCU and Antenna" style="text;html=1;align=center;verticalAlign=middle;whiteSpace=wrap;rounded=0;" vertex="1" parent="WIyWlLk6GJQsqaUBKTNV-1">
          <mxGeometry x="350" y="40" width="130" height="60" as="geometry" />
        </mxCell>
        <mxCell id="G9yZXuzABoH1UZLvW5Pr-7" value="" style="rounded=1;whiteSpace=wrap;html=1;" vertex="1" parent="WIyWlLk6GJQsqaUBKTNV-1">
          <mxGeometry x="320" y="160" width="180" height="100" as="geometry" />
        </mxCell>
        <mxCell id="G9yZXuzABoH1UZLvW5Pr-8" value="E-Stop switch for powering off remote in emergency situation" style="text;html=1;align=center;verticalAlign=middle;whiteSpace=wrap;rounded=0;" vertex="1" parent="WIyWlLk6GJQsqaUBKTNV-1">
          <mxGeometry x="350" y="180" width="130" height="60" as="geometry" />
        </mxCell>
        <mxCell id="G9yZXuzABoH1UZLvW5Pr-9" value="" style="rounded=1;whiteSpace=wrap;html=1;" vertex="1" parent="WIyWlLk6GJQsqaUBKTNV-1">
          <mxGeometry x="530" y="20" width="180" height="100" as="geometry" />
        </mxCell>
        <mxCell id="G9yZXuzABoH1UZLvW5Pr-10" value="LCD Display" style="text;html=1;align=center;verticalAlign=middle;whiteSpace=wrap;rounded=0;" vertex="1" parent="WIyWlLk6GJQsqaUBKTNV-1">
          <mxGeometry x="560" y="40" width="130" height="60" as="geometry" />
        </mxCell>
        <mxCell id="G9yZXuzABoH1UZLvW5Pr-11" value="Brush motor on/off switch" style="rounded=1;whiteSpace=wrap;html=1;" vertex="1" parent="WIyWlLk6GJQsqaUBKTNV-1">
          <mxGeometry x="535" y="160" width="180" height="100" as="geometry" />
        </mxCell>
        <mxCell id="G9yZXuzABoH1UZLvW5Pr-13" value="" style="rhombus;whiteSpace=wrap;html=1;" vertex="1" parent="WIyWlLk6GJQsqaUBKTNV-1">
          <mxGeometry x="340" y="640" width="120" height="120" as="geometry" />
        </mxCell>
        <mxCell id="G9yZXuzABoH1UZLvW5Pr-14" value="" style="rounded=1;whiteSpace=wrap;html=1;" vertex="1" parent="WIyWlLk6GJQsqaUBKTNV-1">
          <mxGeometry x="95" y="290" width="180" height="100" as="geometry" />
        </mxCell>
        <mxCell id="G9yZXuzABoH1UZLvW5Pr-15" value="xyz" style="text;html=1;align=center;verticalAlign=middle;whiteSpace=wrap;rounded=0;" vertex="1" parent="WIyWlLk6GJQsqaUBKTNV-1">
          <mxGeometry x="125" y="310" width="130" height="60" as="geometry" />
        </mxCell>
        <mxCell id="G9yZXuzABoH1UZLvW5Pr-16" value="Remote battery is fully charged" style="text;html=1;align=center;verticalAlign=middle;whiteSpace=wrap;rounded=0;" vertex="1" parent="WIyWlLk6GJQsqaUBKTNV-1">
          <mxGeometry x="365" y="680" width="70" height="40" as="geometry" />
        </mxCell>
        <mxCell id="G9yZXuzABoH1UZLvW5Pr-19" value="" style="shape=flexArrow;endArrow=classic;html=1;rounded=0;width=16;endSize=6.5;exitX=0.5;exitY=1;exitDx=0;exitDy=0;" edge="1" parent="WIyWlLk6GJQsqaUBKTNV-1" source="G9yZXuzABoH1UZLvW5Pr-23">
          <mxGeometry width="50" height="50" relative="1" as="geometry">
            <mxPoint x="400" y="600" as="sourcePoint" />
            <mxPoint x="400" y="640" as="targetPoint" />
          </mxGeometry>
        </mxCell>
        <mxCell id="G9yZXuzABoH1UZLvW5Pr-20" value="ON" style="text;html=1;align=center;verticalAlign=middle;whiteSpace=wrap;rounded=0;" vertex="1" parent="WIyWlLk6GJQsqaUBKTNV-1">
          <mxGeometry x="410" y="610" width="70" height="40" as="geometry" />
        </mxCell>
        <mxCell id="G9yZXuzABoH1UZLvW5Pr-21" value="" style="shape=parallelogram;perimeter=parallelogramPerimeter;whiteSpace=wrap;html=1;fixedSize=1;" vertex="1" parent="WIyWlLk6GJQsqaUBKTNV-1">
          <mxGeometry x="535" y="680" width="205" height="60" as="geometry" />
        </mxCell>
        <mxCell id="G9yZXuzABoH1UZLvW5Pr-22" value="LCD display to show the initial status like battery level of remote and shreem, etc.&amp;nbsp;" style="text;html=1;align=center;verticalAlign=middle;whiteSpace=wrap;rounded=0;" vertex="1" parent="WIyWlLk6GJQsqaUBKTNV-1">
          <mxGeometry x="550" y="690" width="180" height="40" as="geometry" />
        </mxCell>
        <mxCell id="G9yZXuzABoH1UZLvW5Pr-23" value="" style="rounded=1;whiteSpace=wrap;html=1;" vertex="1" parent="WIyWlLk6GJQsqaUBKTNV-1">
          <mxGeometry x="340" y="510" width="120" height="60" as="geometry" />
        </mxCell>
        <mxCell id="G9yZXuzABoH1UZLvW5Pr-25" value="E-Stop switch / Main remote switch" style="text;html=1;align=center;verticalAlign=middle;whiteSpace=wrap;rounded=0;" vertex="1" parent="WIyWlLk6GJQsqaUBKTNV-1">
          <mxGeometry x="365" y="520" width="70" height="40" as="geometry" />
        </mxCell>
        <mxCell id="G9yZXuzABoH1UZLvW5Pr-26" value="" style="shape=flexArrow;endArrow=classic;html=1;rounded=0;width=16;endSize=6.5;exitX=0.5;exitY=1;exitDx=0;exitDy=0;entryX=0.5;entryY=0;entryDx=0;entryDy=0;" edge="1" parent="WIyWlLk6GJQsqaUBKTNV-1">
          <mxGeometry width="50" height="50" relative="1" as="geometry">
            <mxPoint x="399.5" y="760" as="sourcePoint" />
            <mxPoint x="400" y="840" as="targetPoint" />
          </mxGeometry>
        </mxCell>
        <mxCell id="G9yZXuzABoH1UZLvW5Pr-27" value="YES" style="text;html=1;align=center;verticalAlign=middle;whiteSpace=wrap;rounded=0;" vertex="1" parent="WIyWlLk6GJQsqaUBKTNV-1">
          <mxGeometry x="390" y="770" width="70" height="40" as="geometry" />
        </mxCell>
        <mxCell id="G9yZXuzABoH1UZLvW5Pr-28" value="" style="shape=parallelogram;perimeter=parallelogramPerimeter;whiteSpace=wrap;html=1;fixedSize=1;" vertex="1" parent="WIyWlLk6GJQsqaUBKTNV-1">
          <mxGeometry x="70" y="670" width="205" height="60" as="geometry" />
        </mxCell>
        <mxCell id="G9yZXuzABoH1UZLvW5Pr-29" value="Charge battery of remote using 12v, 2A charger" style="text;html=1;align=center;verticalAlign=middle;whiteSpace=wrap;rounded=0;" vertex="1" parent="WIyWlLk6GJQsqaUBKTNV-1">
          <mxGeometry x="85" y="680" width="180" height="40" as="geometry" />
        </mxCell>
        <mxCell id="G9yZXuzABoH1UZLvW5Pr-30" value="" style="shape=flexArrow;endArrow=classic;html=1;rounded=0;width=16;endSize=6.5;exitX=0;exitY=0.5;exitDx=0;exitDy=0;entryX=1;entryY=0.5;entryDx=0;entryDy=0;" edge="1" parent="WIyWlLk6GJQsqaUBKTNV-1" source="G9yZXuzABoH1UZLvW5Pr-13" target="G9yZXuzABoH1UZLvW5Pr-29">
          <mxGeometry width="50" height="50" relative="1" as="geometry">
            <mxPoint x="310" y="700" as="sourcePoint" />
            <mxPoint x="310" y="770" as="targetPoint" />
          </mxGeometry>
        </mxCell>
        <mxCell id="G9yZXuzABoH1UZLvW5Pr-31" value="NO" style="text;html=1;align=center;verticalAlign=middle;whiteSpace=wrap;rounded=0;" vertex="1" parent="WIyWlLk6GJQsqaUBKTNV-1">
          <mxGeometry x="275" y="640" width="70" height="40" as="geometry" />
        </mxCell>
        <mxCell id="G9yZXuzABoH1UZLvW5Pr-32" value="" style="shape=flexArrow;endArrow=classic;html=1;rounded=0;width=16;endSize=6.5;exitX=0;exitY=0.5;exitDx=0;exitDy=0;entryX=0;entryY=0.25;entryDx=0;entryDy=0;" edge="1" parent="WIyWlLk6GJQsqaUBKTNV-1" target="G9yZXuzABoH1UZLvW5Pr-22">
          <mxGeometry width="50" height="50" relative="1" as="geometry">
            <mxPoint x="460" y="699.5" as="sourcePoint" />
            <mxPoint x="385" y="699.5" as="targetPoint" />
          </mxGeometry>
        </mxCell>
        <mxCell id="G9yZXuzABoH1UZLvW5Pr-33" value="YES" style="text;html=1;align=center;verticalAlign=middle;whiteSpace=wrap;rounded=0;" vertex="1" parent="WIyWlLk6GJQsqaUBKTNV-1">
          <mxGeometry x="460" y="660" width="70" height="40" as="geometry" />
        </mxCell>
        <mxCell id="G9yZXuzABoH1UZLvW5Pr-35" value="" style="shape=parallelogram;perimeter=parallelogramPerimeter;whiteSpace=wrap;html=1;fixedSize=1;" vertex="1" parent="WIyWlLk6GJQsqaUBKTNV-1">
          <mxGeometry x="290" y="1050" width="220" height="80" as="geometry" />
        </mxCell>
        <mxCell id="G9yZXuzABoH1UZLvW5Pr-36" value="1. Operate Joystick in forward, reverse, left and right.&lt;div&gt;2. Operate brush motor switch.&lt;/div&gt;" style="text;html=1;align=center;verticalAlign=middle;whiteSpace=wrap;rounded=0;" vertex="1" parent="WIyWlLk6GJQsqaUBKTNV-1">
          <mxGeometry x="330" y="1070" width="140" height="40" as="geometry" />
        </mxCell>
        <mxCell id="G9yZXuzABoH1UZLvW5Pr-37" value="YES" style="text;html=1;align=center;verticalAlign=middle;whiteSpace=wrap;rounded=0;" vertex="1" parent="WIyWlLk6GJQsqaUBKTNV-1">
          <mxGeometry x="390" y="910" width="70" height="40" as="geometry" />
        </mxCell>
        <mxCell id="G9yZXuzABoH1UZLvW5Pr-39" value="" style="shape=parallelogram;perimeter=parallelogramPerimeter;whiteSpace=wrap;html=1;fixedSize=1;" vertex="1" parent="WIyWlLk6GJQsqaUBKTNV-1">
          <mxGeometry x="60" y="875" width="205" height="60" as="geometry" />
        </mxCell>
        <mxCell id="G9yZXuzABoH1UZLvW5Pr-40" value="Troubleshoot remote PCB" style="text;html=1;align=center;verticalAlign=middle;whiteSpace=wrap;rounded=0;" vertex="1" parent="WIyWlLk6GJQsqaUBKTNV-1">
          <mxGeometry x="75" y="885" width="180" height="40" as="geometry" />
        </mxCell>
        <mxCell id="G9yZXuzABoH1UZLvW5Pr-41" value="" style="shape=flexArrow;endArrow=classic;html=1;rounded=0;width=16;endSize=6.5;exitX=0;exitY=0.5;exitDx=0;exitDy=0;entryX=1;entryY=0.5;entryDx=0;entryDy=0;" edge="1" parent="WIyWlLk6GJQsqaUBKTNV-1">
          <mxGeometry width="50" height="50" relative="1" as="geometry">
            <mxPoint x="335" y="904.5" as="sourcePoint" />
            <mxPoint x="260" y="904.5" as="targetPoint" />
          </mxGeometry>
        </mxCell>
        <mxCell id="G9yZXuzABoH1UZLvW5Pr-42" value="NO" style="text;html=1;align=center;verticalAlign=middle;whiteSpace=wrap;rounded=0;" vertex="1" parent="WIyWlLk6GJQsqaUBKTNV-1">
          <mxGeometry x="270" y="860" width="70" height="40" as="geometry" />
        </mxCell>
        <mxCell id="G9yZXuzABoH1UZLvW5Pr-43" value="" style="shape=parallelogram;perimeter=parallelogramPerimeter;whiteSpace=wrap;html=1;fixedSize=1;" vertex="1" parent="WIyWlLk6GJQsqaUBKTNV-1">
          <mxGeometry x="535" y="880" width="205" height="60" as="geometry" />
        </mxCell>
        <mxCell id="G9yZXuzABoH1UZLvW5Pr-44" value="Display status of PCB and other components." style="text;html=1;align=center;verticalAlign=middle;whiteSpace=wrap;rounded=0;" vertex="1" parent="WIyWlLk6GJQsqaUBKTNV-1">
          <mxGeometry x="550" y="890" width="180" height="40" as="geometry" />
        </mxCell>
        <mxCell id="G9yZXuzABoH1UZLvW5Pr-45" value="Transmitter and Receiver(RAK) with MCU and Antenna are powered ON" style="rhombus;whiteSpace=wrap;html=1;" vertex="1" parent="WIyWlLk6GJQsqaUBKTNV-1">
          <mxGeometry x="335" y="840" width="125" height="130" as="geometry" />
        </mxCell>
        <mxCell id="G9yZXuzABoH1UZLvW5Pr-46" value="" style="shape=flexArrow;endArrow=classic;html=1;rounded=0;width=16;endSize=6.5;exitX=0;exitY=0.5;exitDx=0;exitDy=0;entryX=0;entryY=0.25;entryDx=0;entryDy=0;" edge="1" parent="WIyWlLk6GJQsqaUBKTNV-1">
          <mxGeometry width="50" height="50" relative="1" as="geometry">
            <mxPoint x="460" y="904.5" as="sourcePoint" />
            <mxPoint x="550" y="905" as="targetPoint" />
          </mxGeometry>
        </mxCell>
        <mxCell id="G9yZXuzABoH1UZLvW5Pr-47" value="YES" style="text;html=1;align=center;verticalAlign=middle;whiteSpace=wrap;rounded=0;" vertex="1" parent="WIyWlLk6GJQsqaUBKTNV-1">
          <mxGeometry x="460" y="860" width="70" height="40" as="geometry" />
        </mxCell>
        <mxCell id="G9yZXuzABoH1UZLvW5Pr-48" value="Display status of shreem_sa motion.&amp;nbsp;&lt;div&gt;&lt;br&gt;&lt;/div&gt;" style="shape=parallelogram;perimeter=parallelogramPerimeter;whiteSpace=wrap;html=1;fixedSize=1;" vertex="1" parent="WIyWlLk6GJQsqaUBKTNV-1">
          <mxGeometry x="580" y="1060" width="205" height="60" as="geometry" />
        </mxCell>
        <mxCell id="G9yZXuzABoH1UZLvW5Pr-49" value="" style="shape=flexArrow;endArrow=classic;html=1;rounded=0;width=16;endSize=6.5;exitX=0;exitY=0.5;exitDx=0;exitDy=0;entryX=0;entryY=0.25;entryDx=0;entryDy=0;" edge="1" parent="WIyWlLk6GJQsqaUBKTNV-1">
          <mxGeometry width="50" height="50" relative="1" as="geometry">
            <mxPoint x="500" y="1089.5" as="sourcePoint" />
            <mxPoint x="590" y="1090" as="targetPoint" />
          </mxGeometry>
        </mxCell>
        <mxCell id="G9yZXuzABoH1UZLvW5Pr-50" value="YES" style="text;html=1;align=center;verticalAlign=middle;whiteSpace=wrap;rounded=0;" vertex="1" parent="WIyWlLk6GJQsqaUBKTNV-1">
          <mxGeometry x="510" y="1040" width="70" height="40" as="geometry" />
        </mxCell>
        <mxCell id="G9yZXuzABoH1UZLvW5Pr-51" value="END" style="rounded=1;whiteSpace=wrap;html=1;" vertex="1" parent="WIyWlLk6GJQsqaUBKTNV-1">
          <mxGeometry x="345" y="1211" width="120" height="60" as="geometry" />
        </mxCell>
        <mxCell id="G9yZXuzABoH1UZLvW5Pr-53" value="" style="shape=flexArrow;endArrow=classic;html=1;rounded=0;width=16;endSize=6.5;exitX=0.5;exitY=1;exitDx=0;exitDy=0;entryX=0.5;entryY=0;entryDx=0;entryDy=0;" edge="1" parent="WIyWlLk6GJQsqaUBKTNV-1">
          <mxGeometry width="50" height="50" relative="1" as="geometry">
            <mxPoint x="397" y="970" as="sourcePoint" />
            <mxPoint x="397.5" y="1050" as="targetPoint" />
          </mxGeometry>
        </mxCell>
        <mxCell id="G9yZXuzABoH1UZLvW5Pr-54" value="" style="shape=flexArrow;endArrow=classic;html=1;rounded=0;width=16;endSize=6.5;exitX=0.5;exitY=1;exitDx=0;exitDy=0;entryX=0.5;entryY=0;entryDx=0;entryDy=0;" edge="1" parent="WIyWlLk6GJQsqaUBKTNV-1">
          <mxGeometry width="50" height="50" relative="1" as="geometry">
            <mxPoint x="397" y="1131" as="sourcePoint" />
            <mxPoint x="397.5" y="1211" as="targetPoint" />
          </mxGeometry>
        </mxCell>
      </root>
    </mxGraphModel>
  </diagram>
</mxfile>
